# xmcd
#
# Track frame offsets:
#	150
#	21204
#	41360
#	57402
#	78270
#	99881
#	116342
#	131891
#	152052
#	172547
#	190469
#	209895
#	228486
#	244043
#	263624
#
# Disc length: 3775 seconds
#
# Revision: 4
# Processed by: cddbd v1.4PL0 Copyright (c) Steve Scherf et al.
# Submitted via: dBpowerAMP V4.0
#
DISCID=c00ebd0f
DTITLE=t - As Time Goes By
DYEAR=2001
DGENRE=blues
TTITLE0=ba-bo
TTITLE1=si-gan-ee heu-reun dui
TTITLE2=I miss you so
TTITLE3=seul-peum-eh gi-dae-uh
TTITLE4=haeng-beok-han na-reul
TTITLE5=geu-dae-ops-neun sa-rang
TTITLE6=La Musique
TTITLE7=As Time Goes By(English Vers.)
TTITLE8=She(...could never be me)
TTITLE9=salm-eui hyang-gi (Soul Flower)
TTITLE10=Old School Love
TTITLE11=chin-gu-ga a-nin yun-in
TTITLE12=La Musique(English Vers.)
TTITLE13=si-gan-ee heu-reun dui(Remix Vers.)
TTITLE14=ha-ru-ha-ru
EXTD=
EXTT0=
EXTT1=
EXTT2=
EXTT3=
EXTT4=
EXTT5=
EXTT6=
EXTT7=
EXTT8=
EXTT9=
EXTT10=
EXTT11=
EXTT12=
EXTT13=
EXTT14=
PLAYORDER=
